<svg width="301" height="57" viewBox="0 0 301 57" fill="none" xmlns="http://www.w3.org/2000/svg">
<path d="M218.173 13.4817H219.998V36.8962H233.514V38.5812H218.173V13.4817Z" fill="white"/>
<path d="M236.25 13.4817H237.97V16.2899H236.25V13.4817ZM236.25 20.4322H237.97V38.5812H236.25V20.4328V20.4322Z" fill="white"/>
<path d="M240.321 20.4326H243.13V14.9563H244.85V20.4326H248.149V21.8712H244.85V35.492C244.85 36.826 245.377 37.2476 246.57 37.2476C247.026 37.2476 247.623 37.1069 247.939 36.9311H248.044V38.4059C247.483 38.6161 246.956 38.7217 246.219 38.7217C244.358 38.7217 243.13 37.7742 243.13 35.6321V21.8712H240.322V20.4326H240.321Z" fill="white"/>
<path d="M251.272 29.6998C251.308 34.0534 253.273 37.5284 257.731 37.5284C260.996 37.5284 262.506 35.6327 263.243 33.1753H264.892C264.155 36.5458 261.768 39.0376 257.731 39.0376C252.395 39.0376 249.517 35.1061 249.517 29.5246C249.517 23.9432 252.641 20.0461 257.591 20.0461C259.557 20.0461 261.172 20.6784 262.365 21.8012C264.366 23.6618 265.033 26.2598 264.998 29.6998H251.272H251.272ZM257.592 21.5209C253.659 21.5209 251.659 24.4692 251.308 28.2957H263.244C263.138 24.715 261.594 21.5209 257.592 21.5209Z" fill="white"/>
<path fill-rule="evenodd" clip-rule="evenodd" d="M206.403 19.1988V22.7788H202.424L202.423 32.3476C202.423 33.2377 202.599 33.8361 202.897 34.1371C203.202 34.4371 203.812 34.5838 204.708 34.5838C205.009 34.5838 205.33 34.568 205.601 34.5439C205.875 34.5187 207.329 34.4826 207.594 34.4382V38.5334C207.063 38.6128 205.446 38.6582 204.899 38.6851C204.352 38.7113 203.802 38.7261 203.283 38.7261C202.465 38.7261 201.677 38.6675 200.946 38.5542C200.211 38.4437 199.562 38.223 199 37.9039C198.443 37.5793 198.03 37.1178 197.708 36.5228C197.387 35.9277 197.252 35.1416 197.252 34.1755L197.253 22.7794H193.938V19.1993H197.253L197.254 13.4985H202.424L202.424 19.2004H206.401L206.403 19.1988Z" fill="#76B83F"/>
<path fill-rule="evenodd" clip-rule="evenodd" d="M87.0737 16.7985L87.0743 11.8926L108.156 11.8953L108.155 16.8007L100.598 16.8001L100.595 38.5445L94.6286 38.5434L94.6313 16.7996L87.0737 16.7985Z" fill="#76B83F"/>
<path fill-rule="evenodd" clip-rule="evenodd" d="M104.192 24.7087C104.666 23.4507 105.332 22.3849 106.205 21.5036C107.078 20.6179 108.123 19.9341 109.339 19.448C110.557 18.9658 111.925 18.7216 113.443 18.7222C114.955 18.7222 116.331 18.9663 117.561 19.4491C118.792 19.9352 119.84 20.6195 120.714 21.5052C121.583 22.3866 122.254 23.4529 122.727 24.7109C123.199 25.9666 123.434 27.3647 123.434 28.9041C123.434 30.4516 123.199 31.8371 122.727 33.0808C122.254 34.3229 121.582 35.3866 120.713 36.2701C119.838 37.1525 118.79 37.8291 117.56 38.2988C116.329 38.7707 114.953 39.0093 113.441 39.0088C111.923 39.0088 110.555 38.7696 109.337 38.2977C108.122 37.8275 107.077 37.1509 106.204 36.2684C105.331 35.3849 104.665 34.3207 104.191 33.0787C103.723 31.8344 103.483 30.4489 103.483 28.9013C103.483 27.362 103.724 25.9645 104.192 24.7087M109.004 31.1572C109.154 31.8946 109.408 32.5531 109.769 33.1356C110.125 33.7224 110.606 34.1877 111.206 34.5315C111.802 34.8818 112.546 35.0526 113.441 35.0526C114.335 35.0526 115.087 34.8818 115.696 34.532C116.307 34.1883 116.79 33.723 117.15 33.1361C117.512 32.5537 117.768 31.8951 117.916 31.1578C118.065 30.427 118.141 29.6781 118.141 28.903C118.141 28.1339 118.066 27.3735 117.917 26.6301C117.768 25.8856 117.513 25.2276 117.151 24.6539C116.791 24.0814 116.308 23.6155 115.697 23.2559C115.089 22.8907 114.336 22.7167 113.443 22.7167C112.548 22.7167 111.803 22.8902 111.207 23.2553C110.606 23.615 110.126 24.0803 109.769 24.6534C109.409 25.2271 109.154 25.8845 109.005 26.6296C108.855 27.373 108.78 28.1339 108.78 28.9024C108.78 29.6776 108.855 30.4264 109.004 31.1572Z" fill="#76B83F"/>
<path fill-rule="evenodd" clip-rule="evenodd" d="M158.637 33.9155C159.435 34.6901 160.574 35.0634 162.068 35.0634C163.136 35.0634 164.055 34.8039 164.828 34.2724C165.598 33.7398 166.072 33.1152 166.246 32.5853H170.904C170.163 34.8395 169.013 36.5376 167.477 37.5399C165.931 38.5285 164.067 39.0201 161.881 39.0201C160.363 39.0201 158.997 38.7727 157.776 38.2899C156.558 37.8049 155.527 37.1124 154.685 36.219C153.84 35.3229 153.186 34.2565 152.726 33.0133C152.265 31.7702 152.035 30.3994 152.036 28.9061C152.036 27.4648 152.273 26.128 152.747 24.8799C153.217 23.6367 153.889 22.5594 154.759 21.6545C155.633 20.7458 156.67 20.0331 157.872 19.5092C159.078 18.9886 160.417 18.7275 161.884 18.728C163.524 18.728 164.949 19.0444 166.172 19.6789C167.39 20.3144 168.395 21.1662 169.174 22.2353C169.956 23.3055 170.523 24.5339 170.867 25.9013C171.22 27.2677 171.343 28.7408 171.244 30.1991L157.332 30.1975C157.405 31.9213 157.846 33.1431 158.637 33.9155ZM164.627 23.7938C163.988 23.098 163.023 22.7373 161.734 22.7367C160.886 22.7367 160.186 22.867 159.629 23.1544C159.067 23.4429 158.616 23.7894 158.285 24.212C157.947 24.6374 157.713 25.1169 157.574 25.5855C157.44 26.0595 157.358 26.4849 157.332 26.8829L165.948 26.884C165.699 25.4256 165.257 24.4928 164.627 23.7938Z" fill="#76B83F"/>
<path fill-rule="evenodd" clip-rule="evenodd" d="M178.825 19.1956V21.9798H179.002C179.672 20.7864 180.544 20.0239 181.611 19.5148C182.68 19.0068 183.774 18.7407 184.897 18.7407C186.311 18.7407 187.469 18.9279 188.377 19.3128C189.284 19.6981 189.998 20.2335 190.523 20.9156C191.041 21.5977 191.417 22.4303 191.626 23.4107C191.841 24.395 191.95 25.4788 191.95 26.6755L191.948 38.5544H186.645L186.646 27.6422C186.646 26.0542 186.398 24.8674 185.901 24.0824C185.401 23.2974 184.521 22.9049 183.252 22.9049C181.808 22.9049 180.737 23.3352 180.09 24.1946C179.444 25.0497 179.089 26.462 179.089 28.4289L179.088 38.5533H173.917L173.919 19.1951H178.825L178.825 19.1956Z" fill="#76B83F"/>
<path fill-rule="evenodd" clip-rule="evenodd" d="M137.324 18.7303C137.324 18.7303 137.234 18.7249 137.197 18.7249C136.524 18.7249 135.876 18.8245 135.256 19.0194C134.634 19.2219 134.048 19.5005 133.501 19.8591C132.953 20.2237 132.47 20.6282 132.048 21.1379C131.624 21.6448 131.29 22.2387 131.043 22.7692H130.959V19.1891H125.921L125.918 38.5462H131.222L131.223 29.8352C131.223 28.9686 131.31 28.1634 131.486 27.4123C131.662 26.6678 131.953 26.0131 132.365 25.4553C132.778 24.8953 133.318 24.4563 133.986 24.1328C134.658 23.8081 135.477 23.6461 136.447 23.6461C136.729 23.6461 137.057 23.662 137.323 23.691V18.7292L137.324 18.7303Z" fill="#76B83F"/>
<path fill-rule="evenodd" clip-rule="evenodd" d="M151.246 18.732C151.114 18.732 151.144 18.7266 151.099 18.7266C150.429 18.7266 149.773 18.8262 149.152 19.0211C148.53 19.2236 147.942 19.5022 147.399 19.8608C146.85 20.2254 146.362 20.6299 145.94 21.1396C145.518 21.6465 145.178 22.2404 144.931 22.7709H144.881V19.1908H139.843L139.841 38.5479H145.144L145.145 29.8369C145.145 28.9703 145.221 28.1651 145.393 27.414C145.566 26.6695 145.85 26.0148 146.264 25.457C146.671 24.897 147.209 24.458 147.879 24.1345C148.551 23.8099 149.387 23.6478 150.354 23.6478C150.636 23.6478 150.98 23.6637 151.245 23.6927V18.7309L151.246 18.732Z" fill="#76B83F"/>
<path fill-rule="evenodd" clip-rule="evenodd" d="M84.0221 38.6748V35.8907H83.9164C83.5661 36.4211 83.1747 36.9351 82.7335 37.332C82.2933 37.7327 81.8488 38.0743 81.3945 38.3387C80.9445 38.6037 80.5088 38.8002 80.0982 38.925C79.6811 39.0493 79.3236 39.1149 79.0258 39.1149C78.2726 39.1149 77.6682 39.0339 77.2183 38.8708C76.7683 38.7033 76.4639 38.4986 76.199 38.2489L76.1979 45.4365H70.8945L70.8978 19.1836H76.2012L76.2001 30.1549C76.2001 31.761 76.4513 32.9637 76.9517 33.7552C77.4564 34.5413 78.3465 34.9393 79.6269 34.9393C81.0814 34.9393 82.1346 34.5035 82.7827 33.6392C83.4353 32.7737 83.7577 31.3482 83.7582 29.3677L83.7593 19.1852H89.0627L89.0605 38.6759H84.0221V38.6748Z" fill="#76B83F"/>
<path fill-rule="evenodd" clip-rule="evenodd" d="M28.2958 0C12.6677 0 0 12.6677 0 28.2958C0 43.924 12.6677 56.5917 28.2958 56.5917C43.924 56.5917 56.5917 43.924 56.5917 28.2958C56.5917 12.6677 43.924 0 28.2958 0ZM32.0111 54.2772C30.3815 51.1537 28.5132 46.7048 28.5132 46.7048C28.2143 45.9932 27.7364 44.8256 27.4539 44.1084L26.7423 42.3157C28.904 43.5271 31.9356 43.5107 34.7438 42.6578C39.8824 41.1042 42.1312 37.6818 42.5335 35.2157C42.6583 35.1834 43.3158 35.8348 43.9294 36.2262C44.5431 36.6226 47.596 38.9261 51.9474 37.6386C52.3169 37.5247 52.6317 37.4158 52.8873 37.3183C49.6499 46.2488 41.6807 52.9136 32.0117 54.2772H32.0111ZM53.0444 31.5874C50.7031 31.9843 49.2421 29.8872 49.2421 29.8872C48.8184 29.3332 48.248 28.3878 47.9655 27.7851L40.9417 12.7493C40.6866 12.1898 39.9963 11.8258 39.4045 11.9292L32.9784 13.1243C32.3593 13.2436 32.0604 13.8085 32.3106 14.3899L38.6496 28.7195C38.9808 29.4744 39.1762 30.284 39.0514 30.9305C38.9321 32.9352 37.1776 35.7544 33.4185 36.6127C27.8453 37.8893 24.1897 32.6691 24.1897 32.6691C23.7227 32.0823 23.576 31.7785 22.8534 30.3985L17.5572 17.1932C17.3131 16.5795 16.5357 16.1772 15.8351 16.308L8.12691 17.7422C7.38298 17.8835 6.95928 18.519 7.20342 19.1655L18.1599 48.6076C18.7413 50.1721 19.4529 51.7744 20.1591 53.2251C9.73959 49.807 2.21101 40.0017 2.21101 28.4261C2.21101 14.0094 13.9005 2.31939 28.3227 2.31939C42.7448 2.31939 54.4403 14.0094 54.4403 28.4261C54.4403 29.3929 54.3861 30.3382 54.2827 31.2727C54.2827 31.2727 53.6252 31.588 53.0444 31.588V31.5874Z" fill="#76B83F"/>
<path d="M269.91 18.9999V8.53076H274.102C274.872 8.53076 275.514 8.64493 276.029 8.87326C276.544 9.10159 276.93 9.41853 277.189 9.82407C277.448 10.2262 277.578 10.6897 277.578 11.2145C277.578 11.6235 277.496 11.983 277.333 12.2931C277.169 12.5998 276.944 12.852 276.658 13.0497C276.375 13.2439 276.051 13.3819 275.687 13.4637V13.566C276.085 13.583 276.458 13.6955 276.806 13.9034C277.157 14.1112 277.442 14.4026 277.66 14.7775C277.878 15.1489 277.987 15.592 277.987 16.1066C277.987 16.6621 277.849 17.1579 277.573 17.5941C277.3 18.0269 276.896 18.3694 276.361 18.6216C275.826 18.8738 275.167 18.9999 274.383 18.9999H269.91ZM272.124 17.1903H273.928C274.545 17.1903 274.995 17.0727 275.278 16.8376C275.56 16.599 275.702 16.2821 275.702 15.8868C275.702 15.5971 275.632 15.3415 275.492 15.12C275.353 14.8985 275.153 14.7247 274.894 14.5986C274.639 14.4725 274.334 14.4094 273.979 14.4094H272.124V17.1903ZM272.124 12.9116H273.765C274.068 12.9116 274.337 12.8588 274.572 12.7532C274.811 12.6441 274.998 12.4908 275.135 12.2931C275.274 12.0954 275.344 11.8586 275.344 11.5826C275.344 11.2043 275.209 10.8993 274.94 10.6675C274.674 10.4358 274.296 10.3199 273.805 10.3199H272.124V12.9116Z" fill="white"/>
<path d="M282.965 19.1533C282.157 19.1533 281.462 18.9897 280.879 18.6625C280.3 18.3319 279.853 17.8651 279.54 17.2619C279.226 16.6552 279.069 15.9379 279.069 15.1098C279.069 14.3021 279.226 13.5932 279.54 12.9832C279.853 12.3732 280.295 11.8978 280.864 11.557C281.436 11.2162 282.108 11.0458 282.878 11.0458C283.396 11.0458 283.878 11.1293 284.324 11.2963C284.774 11.4599 285.166 11.7069 285.5 12.0375C285.838 12.3681 286.1 12.7838 286.287 13.2848C286.475 13.7824 286.569 14.3651 286.569 15.0331V15.6312H279.938V14.2816H284.519C284.519 13.9681 284.45 13.6904 284.314 13.4484C284.178 13.2064 283.989 13.0173 283.747 12.881C283.508 12.7413 283.23 12.6714 282.914 12.6714C282.583 12.6714 282.29 12.7481 282.034 12.9014C281.782 13.0514 281.584 13.2541 281.441 13.5097C281.298 13.7619 281.225 14.0431 281.221 14.3532V15.6363C281.221 16.0248 281.293 16.3605 281.436 16.6433C281.583 16.9262 281.789 17.1443 282.055 17.2976C282.321 17.451 282.636 17.5277 283 17.5277C283.242 17.5277 283.464 17.4936 283.665 17.4254C283.866 17.3573 284.038 17.255 284.181 17.1187C284.324 16.9824 284.433 16.8154 284.508 16.6178L286.523 16.7507C286.42 17.2346 286.211 17.6572 285.894 18.0184C285.58 18.3763 285.175 18.6557 284.677 18.8568C284.183 19.0544 283.612 19.1533 282.965 19.1533Z" fill="white"/>
<path d="M292.166 11.148V12.7838H287.438V11.148H292.166ZM288.511 9.26687H290.689V16.5871C290.689 16.7882 290.719 16.9449 290.781 17.0574C290.842 17.1664 290.927 17.2431 291.036 17.2874C291.149 17.3317 291.278 17.3539 291.425 17.3539C291.527 17.3539 291.629 17.3454 291.732 17.3283C291.834 17.3079 291.912 17.2925 291.967 17.2823L292.309 18.9028C292.2 18.9369 292.047 18.976 291.849 19.0203C291.651 19.0681 291.411 19.097 291.128 19.1072C290.603 19.1277 290.143 19.0578 289.748 18.8977C289.356 18.7375 289.051 18.4887 288.833 18.1513C288.615 17.8139 288.508 17.388 288.511 16.8734V9.26687Z" fill="white"/>
<path d="M295.824 19.1481C295.323 19.1481 294.876 19.0612 294.484 18.8874C294.092 18.7102 293.782 18.4495 293.554 18.1053C293.329 17.7577 293.217 17.3249 293.217 16.8069C293.217 16.3707 293.297 16.0043 293.457 15.7078C293.617 15.4114 293.835 15.1728 294.111 14.9922C294.387 14.8116 294.701 14.6752 295.052 14.5832C295.406 14.4912 295.778 14.4265 296.166 14.389C296.623 14.3413 296.991 14.297 297.27 14.2561C297.55 14.2118 297.752 14.147 297.879 14.0618C298.005 13.9766 298.068 13.8505 298.068 13.6835V13.6529C298.068 13.3291 297.965 13.0786 297.761 12.9014C297.56 12.7242 297.274 12.6356 296.902 12.6356C296.51 12.6356 296.198 12.7225 295.967 12.8963C295.735 13.0667 295.582 13.2814 295.507 13.5404L293.493 13.3768C293.595 12.8997 293.796 12.4874 294.096 12.1398C294.396 11.7887 294.782 11.5195 295.256 11.3321C295.733 11.1412 296.285 11.0458 296.912 11.0458C297.349 11.0458 297.766 11.0969 298.165 11.1992C298.567 11.3014 298.923 11.4599 299.233 11.6746C299.547 11.8893 299.794 12.1653 299.974 12.5027C300.155 12.8367 300.245 13.2371 300.245 13.704V18.9999H298.18V17.9111H298.119C297.993 18.1564 297.824 18.3728 297.613 18.5603C297.401 18.7443 297.148 18.8891 296.851 18.9948C296.555 19.097 296.212 19.1481 295.824 19.1481ZM296.447 17.6453C296.768 17.6453 297.05 17.5822 297.296 17.4561C297.541 17.3266 297.734 17.1528 297.873 16.9347C298.013 16.7166 298.083 16.4695 298.083 16.1935V15.3602C298.015 15.4045 297.921 15.4454 297.802 15.4829C297.686 15.517 297.555 15.5494 297.408 15.58C297.262 15.6073 297.115 15.6329 296.969 15.6567C296.822 15.6772 296.689 15.6959 296.57 15.713C296.314 15.7504 296.091 15.8101 295.9 15.8919C295.709 15.9737 295.561 16.0844 295.456 16.2241C295.35 16.3605 295.297 16.5309 295.297 16.7353C295.297 17.0318 295.404 17.2585 295.619 17.4152C295.837 17.5686 296.113 17.6453 296.447 17.6453Z" fill="white"/>
</svg>
